<?xml version="1.0" standalone="no"?>
<!DOCTYPE svg PUBLIC "-//W3C//DTD SVG 20010904//EN"
 "http://www.w3.org/TR/2001/REC-SVG-20010904/DTD/svg10.dtd">
<svg version="1.0" xmlns="http://www.w3.org/2000/svg"
 width="512.000000pt" height="512.000000pt" viewBox="0 0 512.000000 512.000000"
 preserveAspectRatio="xMidYMid meet">
<metadata>
Created by potrace 1.16, written by Peter Selinger 2001-2019
</metadata>
<g transform="translate(0.000000,512.000000) scale(0.100000,-0.100000)"
fill="#000000" stroke="none">
<path d="M0 2560 l0 -2560 2560 0 2560 0 0 2560 0 2560 -2560 0 -2560 0 0
-2560z m2490 1620 c0 -5 17 -10 38 -10 47 0 102 -26 102 -47 0 -9 6 -13 15 -9
14 5 37 -14 77 -62 9 -11 14 -23 11 -25 -2 -3 5 -11 17 -17 18 -10 20 -14 9
-21 -11 -7 -10 -9 4 -9 14 0 17 -5 12 -20 -4 -14 -2 -20 8 -20 18 0 30 -27 15
-32 -7 -3 -9 -12 -4 -23 6 -16 9 -17 16 -5 7 11 10 8 12 -15 5 -68 3 -135 -4
-135 -5 0 -8 5 -8 10 0 23 -19 8 -25 -21 -4 -17 -13 -42 -21 -57 -14 -25 -14
-23 -9 33 7 65 -5 134 -34 199 -21 44 -50 81 -66 82 -31 1 -65 18 -70 35 -5
14 -16 19 -41 19 -19 0 -34 -4 -34 -10 0 -5 5 -10 11 -10 14 0 43 -29 36 -37
-3 -3 -19 4 -35 16 -17 12 -35 21 -41 21 -6 0 -11 5 -11 10 0 6 5 10 12 10 9
0 8 3 -1 13 -11 10 -14 10 -18 0 -3 -9 -25 -13 -66 -12 l-62 2 55 10 c30 5 56
11 57 12 1 0 -2 18 -8 38 -10 36 -11 37 -59 37 -52 0 -169 -26 -184 -41 -12
-11 -36 -12 -36 -1 0 5 11 14 25 20 14 6 25 18 25 27 0 8 9 15 20 15 11 0 20
5 20 10 0 6 14 10 30 10 17 0 30 5 30 10 0 6 37 10 90 10 53 0 90 -4 90 -10z
m-25 -189 c22 -10 57 -36 77 -59 72 -79 75 -173 10 -254 -20 -26 -43 -47 -49
-48 -7 0 -13 -4 -13 -10 0 -6 -35 -11 -82 -12 l-83 -1 65 -6 65 -6 -50 -6
c-59 -6 -135 18 -100 32 17 6 15 8 -10 8 -20 1 -26 4 -17 10 11 7 11 9 -1 14
-9 3 -28 27 -44 54 -59 101 -25 228 77 279 54 28 102 30 155 5z m132 -73 c-3
-8 -6 -5 -6 6 -1 11 2 17 5 13 3 -3 4 -12 1 -19z m20 -40 c-3 -8 -6 -5 -6 6
-1 11 2 17 5 13 3 -3 4 -12 1 -19z m-650 -100 c-2 -13 -4 -5 -4 17 -1 22 1 32
4 23 2 -10 2 -28 0 -40z m1803 -90 c21 -34 27 -88 11 -88 -5 0 -15 15 -21 34
-6 19 -20 46 -31 60 l-20 26 20 0 c13 0 29 -13 41 -32z m-394 -64 c257 -7 288
-13 300 -59 3 -13 1 -104 -5 -202 -6 -98 -15 -288 -22 -423 -6 -135 -14 -301
-18 -369 -10 -170 -1 -163 -225 -155 -445 15 -515 20 -537 40 -20 18 -20 27
-17 258 l3 239 -76 22 c-52 15 -83 19 -99 13 -12 -5 -129 -20 -259 -34 -130
-14 -306 -33 -391 -43 l-155 -17 -5 -45 c-5 -43 -64 -141 -97 -162 -25 -16
-15 -64 20 -91 l32 -25 0 -138 c0 -133 -1 -138 -21 -141 -20 -3 -22 3 -29 62
-3 36 -6 89 -5 118 2 74 3 74 -24 86 -15 6 -31 29 -42 58 -16 43 -18 45 -26
23 -5 -13 -11 -59 -14 -104 -3 -44 -8 -96 -11 -115 l-6 -35 -8 40 c-13 71 -23
1021 -11 1029 10 6 175 -46 347 -108 38 -14 79 -26 90 -25 41 1 -25 33 -159
77 -72 23 -140 47 -151 52 -11 5 -48 18 -81 30 -62 21 -62 21 -115 1 -30 -11
-119 -42 -199 -70 -80 -28 -157 -58 -172 -66 -15 -9 -29 -11 -32 -6 -9 13 69
47 284 126 l185 68 85 -31 c47 -16 123 -44 170 -62 130 -48 194 -70 202 -70 4
0 8 11 8 24 0 14 5 28 10 31 22 14 50 -10 123 -103 114 -145 181 -217 195
-208 14 8 86 107 201 276 47 68 89 120 105 127 14 6 26 7 26 3 0 -5 12 -10 28
-12 l27 -3 -4 -252 -3 -253 28 -10 c20 -8 29 -8 35 1 4 7 10 82 13 168 16 405
20 442 47 464 22 18 34 19 120 13 52 -3 203 -9 335 -12z m-2239 -221 c-3 -10
-5 -4 -5 12 0 17 2 24 5 18 2 -7 2 -21 0 -30z m413 -52 c0 -43 -9 -55 -33 -45
-21 8 -19 62 2 74 27 16 31 12 31 -29z m2261 -44 c-4 -61 -11 -59 -11 3 0 29
3 50 7 46 4 -4 6 -26 4 -49z m76 -9 c-3 -7 -5 -2 -5 12 0 14 2 19 5 13 2 -7 2
-19 0 -25z m-2574 -28 c-3 -11 -9 -20 -14 -20 -10 0 -12 33 -3 43 12 12 22 -3
17 -23z m270 -22 c9 -5 17 -20 17 -34 0 -23 -2 -24 -37 -18 -21 3 -55 16 -75
27 -37 20 -37 21 -15 33 23 12 78 9 110 -8z m-128 -28 c8 -13 -35 -13 -55 0
-11 7 -7 10 17 10 17 0 35 -4 38 -10z m-65 -20 c12 -8 10 -10 -10 -10 -14 0
-32 5 -40 10 -12 8 -10 10 10 10 14 0 32 -5 40 -10z m-60 -20 c12 -8 10 -10
-10 -10 -14 0 -32 5 -40 10 -12 8 -10 10 10 10 14 0 32 -5 40 -10z m-55 -20
c3 -5 -1 -10 -9 -10 -9 0 -16 5 -16 10 0 6 4 10 9 10 6 0 13 -4 16 -10z m275
-66 c0 -31 -3 -35 -22 -32 -39 5 -37 68 2 68 16 0 20 -6 20 -36z m24 -84 c19
-7 26 -17 26 -35 0 -27 -6 -29 -65 -15 -45 10 -73 39 -52 52 17 11 61 10 91
-2z m-394 -41 c0 -6 -4 -7 -10 -4 -5 3 -10 11 -10 16 0 6 5 7 10 4 6 -3 10
-11 10 -16z m270 11 c13 -9 13 -10 0 -9 -8 0 -24 4 -35 9 l-20 9 20 0 c11 0
27 -4 35 -9z m-255 -360 c0 -299 -1 -325 -17 -328 -15 -3 -18 9 -20 110 -3
100 -5 113 -21 116 -31 6 -71 -17 -98 -56 -17 -24 -35 -37 -50 -38 -13 0 -43
-6 -66 -11 l-43 -11 0 35 c0 22 4 32 11 28 22 -15 80 8 129 49 32 27 66 47 93
52 l42 9 3 173 c2 147 0 173 -13 178 -23 9 -6 26 23 22 l27 -3 0 -325z m70
300 c3 -5 1 -10 -4 -10 -6 0 -11 5 -11 10 0 6 2 10 4 10 3 0 8 -4 11 -10z
m1370 0 c3 -5 1 -17 -5 -27 -31 -56 -70 -158 -70 -185 0 -38 -25 -68 -55 -68
-29 0 -41 16 -49 66 -5 35 0 55 30 120 20 44 38 81 40 83 4 4 66 17 91 20 6 0
14 -3 18 -9z m-187 -19 c16 -10 -6 -58 -65 -148 -19 -29 -32 -57 -28 -63 12
-20 -24 -60 -54 -60 -36 0 -48 15 -49 65 -2 54 69 193 101 200 12 2 31 6 42 8
33 7 39 7 53 -2z m1419 -23 c-3 -8 -6 -5 -6 6 -1 11 2 17 5 13 3 -3 4 -12 1
-19z m-2317 -23 c0 -31 -3 -35 -25 -35 -21 0 -25 5 -25 29 0 16 6 32 13 34 29
12 37 6 37 -28z m706 20 c6 -14 -61 -129 -93 -163 -7 -7 -13 -26 -13 -42 0
-33 -23 -60 -50 -60 -59 0 -66 76 -15 172 48 89 47 89 158 107 4 0 10 -6 13
-14z m-186 -24 c0 -5 -29 -48 -65 -96 -37 -50 -64 -94 -61 -102 10 -25 -13
-53 -42 -53 -71 0 -72 71 -2 175 27 40 55 75 62 78 22 9 108 7 108 -2z m-970
-72 c0 -27 -4 -39 -12 -37 -6 2 -11 19 -11 36 1 42 1 42 13 42 6 0 10 -18 10
-41z m493 -18 c5 -5 7 -19 5 -32 -3 -26 -10 -26 -80 -8 -37 9 -50 33 -30 53 9
10 93 -1 105 -13z m2417 -25 c0 -8 -4 -17 -8 -20 -4 -2 -8 4 -8 15 0 10 4 19
8 19 4 0 8 -6 8 -14z m60 -76 c0 -5 -2 -10 -4 -10 -3 0 -8 5 -11 10 -3 6 -1
10 4 10 6 0 11 -4 11 -10z m-2500 -62 c0 -13 -206 -59 -257 -58 -20 0 -35 20
-15 20 4 0 59 11 122 24 136 29 150 30 150 14z m989 -128 l2 -110 -116 0 -116
0 7 98 c3 53 8 99 9 102 2 3 34 7 72 8 37 2 70 5 72 8 2 2 19 4 36 4 l32 0 2
-110z m1344 22 c24 -8 64 -31 88 -53 24 -21 49 -39 56 -39 7 0 13 -6 14 -12 0
-10 2 -10 6 0 2 6 13 12 24 12 18 0 18 -1 2 -18 -10 -9 -25 -18 -33 -19 -8 -1
-27 -5 -42 -8 -23 -6 -29 -3 -37 18 -15 40 -60 68 -100 65 l-36 -3 -5 -64 c-5
-59 -21 -90 -32 -59 -6 18 7 198 17 228 l8 25 13 -30 c9 -23 23 -33 57 -43z
m-1650 21 c-3 -24 -77 -105 -87 -95 -9 8 -7 107 1 116 4 4 25 6 48 4 35 -3 40
-6 38 -25z m-1366 -25 c-3 -8 -6 -5 -6 6 -1 11 2 17 5 13 3 -3 4 -12 1 -19z
m643 -68 l0 -80 -35 0 -35 0 0 80 0 80 35 0 35 0 0 -80z m-119 60 c0 -5 0 -37
0 -70 0 -33 0 -64 0 -70 -1 -5 -19 -10 -41 -10 l-41 0 3 72 c3 72 3 73 33 79
45 10 45 10 46 -1z m629 -61 l0 -59 -50 0 -50 0 0 43 c0 49 7 62 38 71 15 5
22 3 22 -6 0 -8 5 -6 11 5 17 30 29 9 29 -54z m2027 4 c-3 -10 -5 -4 -5 12 0
17 2 24 5 18 2 -7 2 -21 0 -30z m-3197 12 c0 -8 -9 -15 -20 -15 -11 0 -20 7
-20 15 0 8 9 15 20 15 11 0 20 -7 20 -15z m-12 -95 c-10 -16 -10 -24 0 -40 7
-11 8 -20 3 -20 -5 0 -13 9 -16 20 -7 23 2 60 16 60 5 0 4 -9 -3 -20z m3273
-47 c13 -16 12 -17 -3 -4 -17 13 -22 21 -14 21 2 0 10 -8 17 -17z m-2668 -90
c-7 -2 -19 -2 -25 0 -7 3 -2 5 12 5 14 0 19 -2 13 -5z m1940 -20 c-7 -2 -19
-2 -25 0 -7 3 -2 5 12 5 14 0 19 -2 13 -5z m-1163 -293 l-6 -195 -2 182 c-2
149 3 229 12 211 1 -2 -1 -91 -4 -198z m270 180 c0 -11 -4 -20 -9 -20 -5 0 -7
9 -4 20 3 11 7 20 9 20 2 0 4 -9 4 -20z m127 -72 c-2 -18 -4 -4 -4 32 0 36 2
50 4 33 2 -18 2 -48 0 -65z m-870 20 c-3 -7 -5 -2 -5 12 0 14 2 19 5 13 2 -7
2 -19 0 -25z m630 10 c-3 -8 -6 -5 -6 6 -1 11 2 17 5 13 3 -3 4 -12 1 -19z
m-1580 -250 c-1 -51 -3 -12 -3 87 0 99 2 141 3 93 2 -48 2 -129 0 -180z m1606
212 c3 -11 1 -20 -4 -20 -5 0 -9 9 -9 20 0 11 2 20 4 20 2 0 6 -9 9 -20z
m1244 -42 c-3 -8 -6 -5 -6 6 -1 11 2 17 5 13 3 -3 4 -12 1 -19z m450 -40 c-3
-7 -5 -2 -5 12 0 14 2 19 5 13 2 -7 2 -19 0 -25z m0 -50 c-3 -8 -6 -5 -6 6 -1
11 2 17 5 13 3 -3 4 -12 1 -19z m-80 -155 c-2 -21 -4 -4 -4 37 0 41 2 58 4 38
2 -21 2 -55 0 -75z m-370 -55 c-3 -8 -6 -5 -6 6 -1 11 2 17 5 13 3 -3 4 -12 1
-19z"/>
<path d="M2610 4020 c0 -5 5 -10 10 -10 6 0 10 5 10 10 0 6 -4 10 -10 10 -5 0
-10 -4 -10 -10z"/>
<path d="M3038 3453 c-42 -7 -78 -56 -78 -108 0 -34 6 -50 29 -74 25 -27 36
-31 79 -31 75 0 132 58 132 134 0 14 9 31 22 40 15 11 19 19 12 26 -6 6 -35
-15 -84 -65 -41 -41 -80 -75 -87 -75 -16 0 -72 60 -73 78 0 25 32 26 52 1 l18
-24 35 39 c19 22 35 43 35 46 0 8 -38 21 -55 18 -5 0 -22 -3 -37 -5z"/>
<path d="M3270 3380 c-36 -22 11 -33 160 -38 135 -4 150 -3 150 12 0 9 -6 18
-12 20 -30 10 -285 14 -298 6z"/>
<path d="M1700 3341 c0 -41 20 -67 44 -58 9 4 14 18 12 40 -4 43 -12 57 -37
57 -15 0 -19 -7 -19 -39z"/>
<path d="M1824 3338 c-22 -35 -2 -87 34 -88 21 0 15 78 -7 90 -14 7 -22 7 -27
-2z"/>
<path d="M1930 3271 c0 -30 5 -43 20 -51 25 -13 33 2 28 52 -2 25 -8 34 -25
36 -21 3 -23 -1 -23 -37z"/>
<path d="M3264 3299 c-14 -24 21 -31 165 -37 137 -4 151 -3 151 12 0 23 -5 24
-167 30 -96 4 -144 2 -149 -5z"/>
<path d="M2065 3252 c-3 -3 -5 -67 -5 -143 l0 -137 63 5 c34 3 76 8 92 12 l30
7 0 104 c0 81 -3 104 -15 110 -27 14 -159 48 -165 42z m121 -97 c3 -8 3 -19 0
-24 -10 -16 -36 -1 -36 20 0 22 28 26 36 4z"/>
<path d="M1700 3115 c0 -55 0 -56 27 -53 24 3 27 8 29 40 1 44 -4 53 -33 62
-22 7 -23 5 -23 -49z"/>
<path d="M3013 3136 c-44 -20 -67 -67 -60 -125 9 -78 84 -119 160 -88 44 19
67 53 74 109 3 26 15 53 30 69 14 15 21 29 16 32 -5 3 -45 -30 -88 -74 -44
-43 -85 -79 -91 -79 -17 0 -76 80 -70 96 7 19 20 18 41 -6 10 -11 24 -20 31
-20 14 0 79 78 71 86 -13 13 -85 13 -114 0z"/>
<path d="M1817 3133 c-4 -3 -7 -23 -7 -44 0 -37 18 -59 49 -59 18 0 14 97 -5
104 -20 8 -29 8 -37 -1z"/>
<path d="M1936 3108 c-14 -45 -14 -77 0 -89 12 -10 12 -14 2 -21 -10 -6 -10
-10 2 -18 8 -5 18 -10 21 -10 10 0 19 40 19 87 0 32 -5 45 -20 53 -15 8 -21 8
-24 -2z"/>
<path d="M3262 3054 c3 -17 17 -20 146 -28 103 -6 147 -5 155 3 23 23 -11 31
-157 37 -142 7 -148 6 -144 -12z"/>
<path d="M1710 3030 c0 -5 7 -10 15 -10 8 0 15 5 15 10 0 6 -7 10 -15 10 -8 0
-15 -4 -15 -10z"/>
<path d="M3254 2979 c-13 -22 14 -28 159 -35 142 -6 147 -6 147 13 0 18 -9 21
-97 26 -141 10 -201 9 -209 -4z"/>
<path d="M1698 2883 c-5 -54 6 -75 36 -71 18 3 22 11 24 52 3 50 -6 66 -39 66
-13 0 -18 -12 -21 -47z"/>
<path d="M2999 2815 c-39 -21 -59 -59 -59 -109 0 -36 6 -50 30 -74 77 -77 210
-23 210 86 0 33 5 45 25 58 14 9 25 20 25 25 0 24 -32 2 -100 -66 -41 -41 -81
-75 -90 -75 -15 1 -70 71 -70 90 0 17 33 11 56 -11 l21 -20 37 42 c42 50 43
55 14 63 -36 9 -71 6 -99 -9z"/>
<path d="M1700 2791 c0 -5 11 -11 25 -13 17 -4 25 -1 25 8 0 8 -11 14 -25 14
-14 0 -25 -4 -25 -9z"/>
<path d="M3252 2733 c3 -16 21 -19 143 -26 147 -8 165 -6 165 16 0 20 -52 27
-193 27 -107 0 -118 -2 -115 -17z"/>
<path d="M3245 2660 c-13 -21 13 -27 157 -35 140 -7 178 -1 152 25 -17 17
-299 26 -309 10z"/>
</g>
</svg>
